<mxfile host="65bd71144e">
    <diagram id="j7RQIA2il0DcWsldoxHG" name="Page-1">
        <mxGraphModel dx="1260" dy="778" grid="1" gridSize="10" guides="1" tooltips="1" connect="1" arrows="1" fold="1" page="1" pageScale="1" pageWidth="850" pageHeight="1100" math="0" shadow="0">
            <root>
                <mxCell id="0"/>
                <mxCell id="1" parent="0"/>
                <mxCell id="60" value="main" style="rounded=0;whiteSpace=wrap;html=1;fontFamily=Lucida Console;fontStyle=1" parent="1" vertex="1">
                    <mxGeometry width="920" height="40" as="geometry"/>
                </mxCell>
                <mxCell id="19" value="float3" style="rounded=1;whiteSpace=wrap;html=1;shadow=1;fontFamily=Lucida Console;fillColor=#f8cecc;strokeColor=#b85450;" parent="1" vertex="1">
                    <mxGeometry x="20" y="60" width="160" height="40" as="geometry"/>
                </mxCell>
                <mxCell id="20" value="x: float" style="rounded=0;whiteSpace=wrap;html=1;shadow=1;fontFamily=Lucida Console;fillColor=#f5f5f5;fontColor=#333333;strokeColor=#666666;" parent="1" vertex="1">
                    <mxGeometry x="20" y="110" width="160" height="20" as="geometry"/>
                </mxCell>
                <mxCell id="21" value="y: float" style="rounded=0;whiteSpace=wrap;html=1;shadow=1;fontFamily=Lucida Console;fillColor=#f5f5f5;fontColor=#333333;strokeColor=#666666;" parent="1" vertex="1">
                    <mxGeometry x="20" y="140" width="160" height="20" as="geometry"/>
                </mxCell>
                <mxCell id="22" value="z: float" style="rounded=0;whiteSpace=wrap;html=1;shadow=1;fontFamily=Lucida Console;fillColor=#f5f5f5;fontColor=#333333;strokeColor=#666666;" parent="1" vertex="1">
                    <mxGeometry x="20" y="170" width="160" height="20" as="geometry"/>
                </mxCell>
                <mxCell id="23" value="cube" style="rounded=1;whiteSpace=wrap;html=1;shadow=1;fontFamily=Lucida Console;fillColor=#d5e8d4;strokeColor=#82b366;" parent="1" vertex="1">
                    <mxGeometry x="260" y="230" width="160" height="40" as="geometry"/>
                </mxCell>
                <mxCell id="24" value="name: string" style="rounded=0;whiteSpace=wrap;html=1;shadow=1;fontFamily=Lucida Console;fillColor=#f5f5f5;fontColor=#333333;strokeColor=#666666;" parent="1" vertex="1">
                    <mxGeometry x="260" y="280" width="160" height="20" as="geometry"/>
                </mxCell>
                <mxCell id="49" style="edgeStyle=none;rounded=0;html=1;exitX=0;exitY=0.5;exitDx=0;exitDy=0;endArrow=none;endFill=0;fontFamily=Lucida Console;" parent="1" source="25" edge="1">
                    <mxGeometry relative="1" as="geometry">
                        <mxPoint x="220" y="150" as="targetPoint"/>
                        <Array as="points">
                            <mxPoint x="220" y="320"/>
                        </Array>
                    </mxGeometry>
                </mxCell>
                <mxCell id="25" value="size: float3" style="rounded=0;whiteSpace=wrap;html=1;shadow=1;fontFamily=Lucida Console;fillColor=#f5f5f5;fontColor=#333333;strokeColor=#666666;" parent="1" vertex="1">
                    <mxGeometry x="260" y="310" width="160" height="20" as="geometry"/>
                </mxCell>
                <mxCell id="27" value="material" style="rounded=1;whiteSpace=wrap;html=1;shadow=1;fontFamily=Lucida Console;fillColor=#d5e8d4;strokeColor=#82b366;" parent="1" vertex="1">
                    <mxGeometry x="260" y="60" width="160" height="40" as="geometry"/>
                </mxCell>
                <mxCell id="28" value="name: string" style="rounded=0;whiteSpace=wrap;html=1;shadow=1;fontFamily=Lucida Console;fillColor=#f5f5f5;fontColor=#333333;strokeColor=#666666;" parent="1" vertex="1">
                    <mxGeometry x="260" y="110" width="160" height="20" as="geometry"/>
                </mxCell>
                <mxCell id="48" style="edgeStyle=none;html=1;exitX=0;exitY=0.5;exitDx=0;exitDy=0;entryX=1;entryY=0.5;entryDx=0;entryDy=0;rounded=0;fontFamily=Lucida Console;" parent="1" source="29" target="19" edge="1">
                    <mxGeometry relative="1" as="geometry">
                        <Array as="points">
                            <mxPoint x="220" y="150"/>
                            <mxPoint x="220" y="80"/>
                        </Array>
                    </mxGeometry>
                </mxCell>
                <mxCell id="29" value="color: float3" style="rounded=0;whiteSpace=wrap;html=1;shadow=1;fontFamily=Lucida Console;fillColor=#f5f5f5;fontColor=#333333;strokeColor=#666666;" parent="1" vertex="1">
                    <mxGeometry x="260" y="140" width="160" height="20" as="geometry"/>
                </mxCell>
                <mxCell id="30" value="specular: float" style="rounded=0;whiteSpace=wrap;html=1;shadow=1;fontFamily=Lucida Console;fillColor=#f5f5f5;fontColor=#333333;strokeColor=#666666;" parent="1" vertex="1">
                    <mxGeometry x="260" y="170" width="160" height="20" as="geometry"/>
                </mxCell>
                <mxCell id="31" value="mesh" style="rounded=1;whiteSpace=wrap;html=1;shadow=1;fontFamily=Lucida Console;fillColor=#d5e8d4;strokeColor=#82b366;" parent="1" vertex="1">
                    <mxGeometry x="260" y="370" width="160" height="40" as="geometry"/>
                </mxCell>
                <mxCell id="32" value="name: string" style="rounded=0;whiteSpace=wrap;html=1;shadow=1;fontFamily=Lucida Console;fillColor=#f5f5f5;fontColor=#333333;strokeColor=#666666;" parent="1" vertex="1">
                    <mxGeometry x="260" y="420" width="160" height="20" as="geometry"/>
                </mxCell>
                <mxCell id="33" value="vertices: blob" style="rounded=0;whiteSpace=wrap;html=1;shadow=1;fontFamily=Lucida Console;fillColor=#f5f5f5;fontColor=#333333;strokeColor=#666666;" parent="1" vertex="1">
                    <mxGeometry x="260" y="450" width="160" height="20" as="geometry"/>
                </mxCell>
                <mxCell id="34" value="indices: blob" style="rounded=0;whiteSpace=wrap;html=1;shadow=1;fontFamily=Lucida Console;fillColor=#f5f5f5;fontColor=#333333;strokeColor=#666666;" parent="1" vertex="1">
                    <mxGeometry x="260" y="480" width="160" height="20" as="geometry"/>
                </mxCell>
                <mxCell id="35" value="sphere" style="rounded=1;whiteSpace=wrap;html=1;shadow=1;fontFamily=Lucida Console;fillColor=#d5e8d4;strokeColor=#82b366;" parent="1" vertex="1">
                    <mxGeometry x="260" y="540" width="160" height="40" as="geometry"/>
                </mxCell>
                <mxCell id="36" value="name: string" style="rounded=0;whiteSpace=wrap;html=1;shadow=1;fontFamily=Lucida Console;fillColor=#f5f5f5;fontColor=#333333;strokeColor=#666666;" parent="1" vertex="1">
                    <mxGeometry x="260" y="590" width="160" height="20" as="geometry"/>
                </mxCell>
                <mxCell id="37" value="radius: float" style="rounded=0;whiteSpace=wrap;html=1;shadow=1;fontFamily=Lucida Console;fillColor=#f5f5f5;fontColor=#333333;strokeColor=#666666;" parent="1" vertex="1">
                    <mxGeometry x="260" y="620" width="160" height="20" as="geometry"/>
                </mxCell>
                <mxCell id="38" value="node" style="rounded=1;whiteSpace=wrap;html=1;shadow=1;fontFamily=Lucida Console;fillColor=#dae8fc;strokeColor=#6c8ebf;" parent="1" vertex="1">
                    <mxGeometry x="500" y="60" width="160" height="40" as="geometry"/>
                </mxCell>
                <mxCell id="39" value="name: string" style="rounded=0;whiteSpace=wrap;html=1;shadow=1;fontFamily=Lucida Console;fillColor=#f5f5f5;fontColor=#333333;strokeColor=#666666;" parent="1" vertex="1">
                    <mxGeometry x="500" y="110" width="160" height="20" as="geometry"/>
                </mxCell>
                <mxCell id="61" style="edgeStyle=none;html=1;exitX=0;exitY=0.5;exitDx=0;exitDy=0;endArrow=none;endFill=0;rounded=0;" edge="1" parent="1" source="40">
                    <mxGeometry relative="1" as="geometry">
                        <mxPoint x="220" y="80" as="targetPoint"/>
                        <Array as="points">
                            <mxPoint x="480" y="150"/>
                            <mxPoint x="480" y="50"/>
                            <mxPoint x="220" y="50"/>
                        </Array>
                    </mxGeometry>
                </mxCell>
                <mxCell id="40" value="translation: float3" style="rounded=0;whiteSpace=wrap;html=1;shadow=1;fontFamily=Lucida Console;fillColor=#f5f5f5;fontColor=#333333;strokeColor=#666666;" parent="1" vertex="1">
                    <mxGeometry x="500" y="140" width="160" height="20" as="geometry"/>
                </mxCell>
                <mxCell id="51" style="edgeStyle=none;rounded=0;html=1;exitX=0;exitY=0.5;exitDx=0;exitDy=0;entryX=1;entryY=0.5;entryDx=0;entryDy=0;dashed=1;endArrow=classic;endFill=1;fontFamily=Lucida Console;" parent="1" source="41" target="27" edge="1">
                    <mxGeometry relative="1" as="geometry">
                        <Array as="points">
                            <mxPoint x="460" y="180"/>
                            <mxPoint x="460" y="80"/>
                        </Array>
                    </mxGeometry>
                </mxCell>
                <mxCell id="41" value="material: material&amp;amp;" style="rounded=0;whiteSpace=wrap;html=1;shadow=1;fontFamily=Lucida Console;fillColor=#f5f5f5;fontColor=#333333;strokeColor=#666666;dashed=1;" parent="1" vertex="1">
                    <mxGeometry x="500" y="170" width="160" height="20" as="geometry"/>
                </mxCell>
                <mxCell id="52" style="edgeStyle=none;rounded=0;html=1;exitX=0;exitY=0.5;exitDx=0;exitDy=0;dashed=1;endArrow=classic;endFill=1;entryX=1;entryY=0.5;entryDx=0;entryDy=0;fontFamily=Lucida Console;" parent="1" source="42" target="23" edge="1">
                    <mxGeometry relative="1" as="geometry">
                        <mxPoint x="450" y="270" as="targetPoint"/>
                        <Array as="points">
                            <mxPoint x="460" y="210"/>
                            <mxPoint x="460" y="250"/>
                        </Array>
                    </mxGeometry>
                </mxCell>
                <mxCell id="42" value="cube: cube&amp;amp;" style="rounded=0;whiteSpace=wrap;html=1;shadow=1;fontFamily=Lucida Console;fillColor=#f5f5f5;fontColor=#333333;strokeColor=#666666;dashed=1;" parent="1" vertex="1">
                    <mxGeometry x="500" y="200" width="160" height="20" as="geometry"/>
                </mxCell>
                <mxCell id="53" style="edgeStyle=none;rounded=0;html=1;exitX=0;exitY=0.5;exitDx=0;exitDy=0;entryX=1;entryY=0.5;entryDx=0;entryDy=0;dashed=1;endArrow=classic;endFill=1;fontFamily=Lucida Console;" parent="1" source="43" target="31" edge="1">
                    <mxGeometry relative="1" as="geometry">
                        <Array as="points">
                            <mxPoint x="470" y="240"/>
                            <mxPoint x="470" y="390"/>
                        </Array>
                    </mxGeometry>
                </mxCell>
                <mxCell id="43" value="mesh: mesh&amp;amp;" style="rounded=0;whiteSpace=wrap;html=1;shadow=1;fontFamily=Lucida Console;fillColor=#f5f5f5;fontColor=#333333;strokeColor=#666666;dashed=1;" parent="1" vertex="1">
                    <mxGeometry x="500" y="230" width="160" height="20" as="geometry"/>
                </mxCell>
                <mxCell id="55" style="edgeStyle=none;rounded=0;html=1;exitX=0;exitY=0.5;exitDx=0;exitDy=0;entryX=1;entryY=0.5;entryDx=0;entryDy=0;dashed=1;endArrow=classic;endFill=1;fontFamily=Lucida Console;" parent="1" source="44" target="35" edge="1">
                    <mxGeometry relative="1" as="geometry">
                        <Array as="points">
                            <mxPoint x="480" y="270"/>
                            <mxPoint x="480" y="560"/>
                        </Array>
                    </mxGeometry>
                </mxCell>
                <mxCell id="44" value="sphere: sphere&amp;amp;" style="rounded=0;whiteSpace=wrap;html=1;shadow=1;fontFamily=Lucida Console;fillColor=#f5f5f5;fontColor=#333333;strokeColor=#666666;dashed=1;" parent="1" vertex="1">
                    <mxGeometry x="500" y="260" width="160" height="20" as="geometry"/>
                </mxCell>
                <mxCell id="45" value="scene" style="rounded=1;whiteSpace=wrap;html=1;shadow=1;fontFamily=Lucida Console;fillColor=#e1d5e7;strokeColor=#9673a6;" parent="1" vertex="1">
                    <mxGeometry x="740" y="60" width="160" height="50" as="geometry"/>
                </mxCell>
                <mxCell id="46" value="name: string" style="rounded=0;whiteSpace=wrap;html=1;shadow=1;fontFamily=Lucida Console;fillColor=#f5f5f5;fontColor=#333333;strokeColor=#666666;" parent="1" vertex="1">
                    <mxGeometry x="740" y="120" width="160" height="20" as="geometry"/>
                </mxCell>
                <mxCell id="50" style="edgeStyle=none;rounded=0;html=1;exitX=0;exitY=0.5;exitDx=0;exitDy=0;dashed=1;endArrow=classic;endFill=1;entryX=1;entryY=0.5;entryDx=0;entryDy=0;fontFamily=Lucida Console;" parent="1" source="47" target="38" edge="1">
                    <mxGeometry relative="1" as="geometry">
                        <mxPoint x="680" y="90" as="targetPoint"/>
                        <Array as="points">
                            <mxPoint x="700" y="160"/>
                            <mxPoint x="700" y="80"/>
                        </Array>
                    </mxGeometry>
                </mxCell>
                <mxCell id="47" value="nodes: node[]" style="rounded=0;whiteSpace=wrap;html=1;shadow=1;fontFamily=Lucida Console;fillColor=#f5f5f5;fontColor=#333333;strokeColor=default;dashed=1;" parent="1" vertex="1">
                    <mxGeometry x="740" y="150" width="160" height="20" as="geometry"/>
                </mxCell>
                <mxCell id="57" value="" style="endArrow=none;dashed=1;html=1;dashPattern=1 3;strokeWidth=2;rounded=0;fontFamily=Lucida Console;" parent="1" edge="1">
                    <mxGeometry width="50" height="50" relative="1" as="geometry">
                        <mxPoint y="660" as="sourcePoint"/>
                        <mxPoint x="920" y="660" as="targetPoint"/>
                    </mxGeometry>
                </mxCell>
                <mxCell id="58" value="" style="endArrow=none;dashed=1;html=1;dashPattern=1 3;strokeWidth=2;rounded=0;exitX=1;exitY=1;exitDx=0;exitDy=0;fontFamily=Lucida Console;" parent="1" source="60" edge="1">
                    <mxGeometry width="50" height="50" relative="1" as="geometry">
                        <mxPoint x="920" y="20" as="sourcePoint"/>
                        <mxPoint x="920" y="660" as="targetPoint"/>
                    </mxGeometry>
                </mxCell>
                <mxCell id="59" value="" style="endArrow=none;dashed=1;html=1;dashPattern=1 3;strokeWidth=2;rounded=0;exitX=0;exitY=1;exitDx=0;exitDy=0;fontFamily=Lucida Console;" parent="1" source="60" edge="1">
                    <mxGeometry width="50" height="50" relative="1" as="geometry">
                        <mxPoint y="20" as="sourcePoint"/>
                        <mxPoint y="660" as="targetPoint"/>
                    </mxGeometry>
                </mxCell>
            </root>
        </mxGraphModel>
    </diagram>
</mxfile>